<?xml version="1.0" encoding="UTF-8"?>
<svg id="_레이어_1" data-name="레이어_1" xmlns="http://www.w3.org/2000/svg" version="1.1" viewBox="0 0 176 48">
  <!-- Generator: Adobe Illustrator 30.4.0, SVG Export Plug-In . SVG Version: 2.1.4 Build 226)  -->
  <defs>
    <style>
      .st0 {
        fill: #221b1c;
      }

      .st1 {
        fill: #064c95;
      }

      .st2 {
        fill: #666865;
      }

      .st3 {
        fill: #d2191c;
      }
    </style>
  </defs>
  <g>
    <path class="st3" d="M37.81,20.16c4.4-4.5,6.47-13.32,3.78-15.86-1.92-1.88-6.12-1.31-10.86.82-5.23,2.45-9.28,5.8-13.06,10.87h0l.83,6.95h0c4.06-11.61,16.36-18.89,21.11-16.11,1.99,1.06,1.72,6.78-1.79,13.32h0Z"/>
    <path class="st1" d="M32.44,15.5h-7.01c-.41,0-.83.16-1.17.57-.34.32-.62.81-.69,1.31l-1.24,7.28c-.07.57,0,.98.28,1.38.28.33.62.49,1.03.49h1.17c-1.44,3.68-3.85,6.79-6.54,9.16-1.3,1.14-2.68,2.04-4.05,2.86-1.38.82-2.75,1.3-4.05,1.64-2.06.57-3.85.41-5.02-.33-1.58-1.14-1.09-6.13,2.2-11.85-4.05,3.76-6.26,11.53-3.99,14.07,1.24,1.3,3.78,1.55,6.81.73,1.3-.33,2.68-.82,4.05-1.47,1.31-.66,2.68-1.39,4.05-2.21.49-.41,1.04-.73,1.59-1.07,4.53-3.43,9-9.4,10.86-14.71h-3.37l.62-3.76h3.71l-2.27,13.74,3.99,4.83,4.53-27.48-5.5,4.83ZM10.17,34.64l1.44-1.31h2.61l3.78.08h.27c.97-.08,1.38-.65,1.45-1.64l2.54-14.88c.14-.9-.21-1.23-.96-1.39h-6.67l-.41-.57-3.43-4.26c-.21,1.14-.41,2.37-.62,3.51-1.38,8.01-2.68,16.03-4.06,23.96l4.06-3.51ZM13.95,19.35h3.37l-1.72,10.13h-3.3l1.65-10.13Z"/>
    <g>
      <g>
        <path class="st2" d="M24.72,41.19c.11.19.15.41.12.65-.04.31-.16.57-.37.8-.21.22-.52.34-.93.34-.45,0-.79-.16-1-.48-.22-.32-.33-.65-.34-1h.46c.01.33.1.58.26.75.16.17.37.26.62.26s.45-.07.58-.2c.13-.13.21-.3.24-.49.03-.15,0-.28-.06-.38-.07-.1-.17-.19-.3-.27-.15-.08-.31-.13-.49-.14-.17-.01-.35-.06-.52-.15-.22-.11-.39-.24-.51-.4-.12-.15-.17-.37-.17-.64,0-.27.11-.53.31-.77.2-.25.5-.37.89-.37.47,0,.79.16.97.47.17.31.26.59.26.82h-.46c0-.23-.06-.42-.19-.58-.12-.16-.32-.25-.58-.25-.25,0-.43.07-.54.22-.12.14-.17.3-.17.47,0,.18.05.31.13.39.09.08.18.14.28.19.13.05.29.1.48.13.19.03.38.1.57.2.19.1.33.25.44.44Z"/>
        <g>
          <path class="st2" d="M25.41,42.84v-2.92h.31v2.92h-.31Z"/>
          <path class="st2" d="M27.86,42.86l-1.21-2.32h-.02v2.31h-.32v-2.93h.37l1.22,2.32h.02v-2.32h.32v2.93h-.38Z"/>
          <path class="st2" d="M30.42,40.78c-.04-.13-.11-.27-.22-.39-.1-.13-.27-.19-.49-.19-.25,0-.44.11-.58.32-.14.21-.21.5-.21.86s.07.66.21.88c.14.22.33.33.58.33.21,0,.38-.07.49-.21.11-.14.19-.29.22-.45h.35c-.04.22-.15.44-.32.67-.17.23-.41.34-.74.34-.35,0-.63-.14-.83-.42-.2-.28-.3-.66-.3-1.13s.1-.83.3-1.11c.2-.28.48-.42.83-.42.33,0,.58.11.75.32.17.22.27.42.31.6h-.35Z"/>
          <path class="st2" d="M31.14,42.84v-2.92h1.72v.35h-1.4v.89h1.35v.34h-1.35v1.01h1.44v.34h-1.75Z"/>
        </g>
      </g>
      <g>
        <path class="st2" d="M34.49,42.87v-2.19h-.55v-.31c.08,0,.16-.01.23-.04.07-.02.14-.06.2-.12.05-.04.09-.1.12-.17.04-.07.06-.15.06-.23h.24v3.06h-.31Z"/>
        <path class="st2" d="M36.81,39.96c.14.15.24.34.31.56.06.2.09.48.09.82,0,.34-.04.63-.11.85-.07.24-.18.42-.32.56-.14.13-.31.2-.52.2-.22,0-.41-.09-.57-.27-.16-.18-.24-.37-.26-.59h.32c.01.11.06.23.16.34.09.12.22.18.37.18s.26-.05.33-.15c.07-.1.13-.21.16-.33.04-.12.06-.24.07-.35,0-.11,0-.22,0-.3-.08.1-.17.18-.28.25-.1.07-.23.1-.36.09-.24-.02-.43-.13-.58-.33-.15-.21-.22-.45-.22-.73s.08-.53.24-.73c.16-.2.36-.29.61-.29.23,0,.41.07.55.22ZM36.65,41.26c.09-.13.14-.3.14-.51s-.05-.37-.14-.5c-.1-.13-.22-.19-.37-.19s-.28.06-.38.19c-.1.13-.15.3-.15.5s.05.37.15.51c.1.13.22.2.38.2s.28-.06.37-.2Z"/>
        <path class="st2" d="M39.57,39.3c-.09.12-.2.31-.34.58-.14.27-.29.59-.43.95-.15.37-.27.74-.36,1.11-.09.37-.13.68-.13.91h-.5c0-.19.05-.45.11-.78.07-.33.18-.69.33-1.06.14-.35.29-.69.46-1.02.17-.34.3-.57.38-.72h-1.76v-.46h2.24v.5Z"/>
        <path class="st2" d="M41.58,40.48c.24.21.36.56.36,1.06,0,.45-.12.8-.36,1.04-.24.24-.5.37-.78.37-.34,0-.62-.12-.81-.36-.19-.24-.31-.5-.35-.79h.42c.02.17.09.33.22.47.13.14.3.22.51.22.2,0,.37-.09.49-.27.13-.17.19-.4.19-.68s-.06-.49-.18-.68c-.12-.19-.29-.28-.5-.28-.16,0-.3.03-.41.1-.11.06-.19.15-.25.25h-.41s.28-2.14.28-2.14h1.82v.47h-1.45l-.14,1.08c.11-.09.24-.15.36-.17.13-.03.25-.04.36-.04.2.02.41.13.65.34Z"/>
      </g>
    </g>
  </g>
  <g>
    <g>
      <path class="st0" d="M62.44,31.57h1.38c.47,0,.81.26,1.03.76.16.38.24.86.24,1.42,0,.62-.09,1.14-.26,1.57-.23.56-.57.83-1.03.83h-1.36v-4.59ZM63.09,35.37h.63c.24,0,.43-.16.54-.49.1-.27.16-.62.16-1.05,0-.6-.09-1.01-.25-1.24-.11-.15-.27-.22-.46-.22h-.62v3.01Z"/>
      <path class="st0" d="M66.11,36.16h-.69l1.14-4.59h.76l1.12,4.59h-.71l-.21-.95h-1.19l-.22.95ZM66.52,34.41h.82l-.4-1.81h-.01l-.4,1.81Z"/>
      <path class="st0" d="M71.18,32.38h-1.66v.97h1.52v.8h-1.52v1.2h1.73v.81h-2.38v-4.6h2.31v.81Z"/>
      <path class="st0" d="M73.05,31.57h1.59c.36,0,.62.16.79.5.12.23.18.5.18.8,0,.26-.04.48-.13.68-.09.2-.21.34-.35.42.14.09.24.2.29.32.07.16.11.45.11.85,0,.36,0,.58.02.68.02.12.06.2.13.23v.12h-.73c-.02-.12-.04-.24-.05-.37-.01-.15-.02-.33-.02-.55,0-.35-.02-.57-.07-.67-.06-.13-.21-.2-.43-.2h-.68v1.79h-.65v-4.59ZM74.46,33.6c.17,0,.3-.05.38-.15.08-.1.12-.26.12-.49,0-.16-.03-.29-.08-.4-.08-.14-.2-.21-.36-.21h-.81v1.24h.76Z"/>
      <path class="st0" d="M77.81,36.16h-.66v-1.73l-1.11-2.85h.77l.68,2.01.61-2.01h.74l-1.04,2.87v1.72Z"/>
      <path class="st0" d="M81.86,34.53c0,.58-.12,1.02-.35,1.32-.22.28-.53.42-.94.42-.18,0-.35-.04-.51-.12-.21-.09-.37-.24-.49-.45-.08-.14-.15-.3-.19-.49-.04-.18-.06-.38-.06-.61v-3.03h.68v2.96c0,.31.06.53.17.69.1.15.23.22.41.22.22,0,.38-.08.48-.23.1-.14.15-.35.15-.64v-3h.67v2.97Z"/>
      <path class="st0" d="M83.19,36.16h-.65v-4.59h.65v1.87l1.2-1.87h.84l-1.27,1.88,1.35,2.7h-.85l-.96-2.01-.31.46v1.55Z"/>
      <path class="st0" d="M89.25,33.09c-.04-.22-.09-.39-.16-.5-.12-.19-.29-.29-.52-.29-.21,0-.38.1-.52.31-.18.27-.27.7-.27,1.27,0,.45.06.81.18,1.09.14.32.34.48.61.48.18,0,.33-.08.44-.22.12-.15.2-.36.24-.64h.66c-.07.53-.22.93-.44,1.22-.24.32-.55.48-.92.48-.43,0-.78-.21-1.03-.62-.27-.43-.4-1.03-.4-1.79s.14-1.36.42-1.79c.26-.4.6-.61,1.02-.61s.76.18,1.01.55c.2.3.32.66.34,1.07h-.66Z"/>
      <path class="st0" d="M92.27,35.83c-.21.29-.47.44-.8.44s-.6-.15-.81-.44c-.24-.32-.36-.77-.36-1.35s.12-1.03.36-1.36c.21-.29.48-.43.81-.43s.58.14.8.43c.24.33.36.78.36,1.36s-.12,1.03-.36,1.35ZM91.91,33.78c-.09-.24-.23-.35-.43-.35s-.35.12-.44.35c-.06.17-.09.4-.09.69,0,.27.03.5.09.68.09.24.24.36.44.36s.34-.12.43-.36c.06-.18.1-.4.1-.68,0-.29-.03-.51-.1-.69Z"/>
      <path class="st0" d="M95.2,36.15h-.61v-2.05c0-.19-.02-.33-.06-.42-.06-.16-.17-.24-.33-.24-.14,0-.26.07-.34.2-.09.14-.14.34-.14.58v1.94h-.61v-3.38h.59v.5h0c.07-.16.14-.29.22-.38.13-.14.29-.21.48-.21.24,0,.43.09.57.29.16.2.23.49.23.85v2.33Z"/>
      <path class="st0" d="M97.16,33.81c-.02-.15-.05-.25-.09-.32-.06-.09-.17-.13-.32-.13s-.26.03-.31.11c-.04.05-.06.12-.06.22,0,.09.05.17.15.22.06.04.18.08.35.13.3.09.51.18.63.28.21.17.32.42.32.75,0,.44-.13.76-.37.96-.18.15-.39.22-.65.22-.3,0-.56-.09-.75-.26-.24-.21-.36-.52-.37-.93h.63c0,.16.04.28.11.36.08.1.22.15.4.15.14,0,.24-.04.31-.13.06-.06.08-.14.08-.23,0-.11-.05-.19-.16-.25-.06-.04-.19-.08-.36-.13-.29-.09-.5-.18-.62-.28-.21-.17-.31-.42-.31-.75,0-.3.06-.56.2-.76.17-.25.41-.38.74-.38.28,0,.5.06.67.2.22.18.35.49.37.93h-.6Z"/>
      <path class="st0" d="M99.01,32.73h.38v.63h-.38v1.94c0,.11.01.18.03.21.03.04.11.06.22.06h.12s0,.65,0,.65h-.12s-.17.03-.17.03h-.07c-.25,0-.42-.07-.52-.21-.08-.11-.11-.29-.11-.53v-2.16h-.31v-.63h.31v-.92h.61v.92Z"/>
      <path class="st0" d="M99.99,32.77h.59v.59h0c.08-.23.15-.38.23-.48.11-.14.25-.2.43-.2h.12v.92s-.06-.02-.09-.02h-.08c-.23,0-.39.09-.49.27-.07.13-.1.31-.1.55v1.75h-.61v-3.38Z"/>
      <path class="st0" d="M103.89,36.17h-.58v-.47h0c-.07.18-.17.32-.29.41-.12.1-.26.16-.43.16-.24,0-.43-.11-.57-.31-.15-.21-.22-.53-.22-.95v-2.33h.61v2.2c0,.24.04.41.13.51.07.08.16.12.28.12s.22-.05.3-.17c.11-.13.16-.34.16-.61v-2.05h.61v3.49Z"/>
      <path class="st0" d="M106.51,34.92c-.02.3-.09.56-.21.8-.19.36-.47.54-.84.54-.4,0-.69-.2-.87-.59-.14-.29-.21-.66-.21-1.12,0-.58.09-1.04.27-1.36.19-.35.47-.52.85-.52.24,0,.45.08.63.25.23.22.37.57.4,1.05h-.61c-.02-.15-.06-.27-.11-.36-.07-.13-.16-.19-.28-.19h-.03c-.18,0-.31.11-.39.34-.06.17-.1.39-.1.65,0,.3.02.53.06.69.07.28.21.42.41.42.13,0,.24-.08.32-.25.06-.12.09-.24.09-.36h.61Z"/>
      <path class="st0" d="M107.69,32.73h.38v.63h-.38v1.94c0,.11.01.18.03.21.03.04.1.06.22.06h.12s0,.65,0,.65h-.12s-.17.03-.17.03h-.08c-.25,0-.42-.07-.51-.21-.08-.11-.11-.29-.11-.53v-2.16h-.31v-.63h.31v-.92h.61v.92Z"/>
      <path class="st0" d="M109.39,32.4h-.61v-.83h.61v.83ZM109.39,32.8v3.35h-.61v-3.35h.61Z"/>
      <path class="st0" d="M111.98,35.83c-.21.29-.48.44-.8.44s-.6-.15-.81-.44c-.24-.32-.35-.77-.35-1.35s.12-1.03.35-1.36c.22-.29.48-.43.81-.43s.58.14.8.43c.24.33.36.78.36,1.36s-.12,1.03-.36,1.35ZM111.62,33.78c-.09-.24-.23-.35-.43-.35s-.35.12-.44.35c-.06.17-.09.4-.09.69,0,.27.03.5.09.68.09.24.24.36.44.36s.34-.12.43-.36c.07-.18.1-.4.1-.68,0-.29-.03-.51-.1-.69Z"/>
      <path class="st0" d="M114.92,36.15h-.61v-2.05c0-.19-.02-.33-.06-.42-.06-.16-.17-.24-.33-.24-.14,0-.26.07-.35.2-.09.14-.14.34-.14.58v1.94h-.61v-3.38h.59v.5h0c.07-.16.14-.29.22-.38.13-.14.29-.21.48-.21.24,0,.43.09.57.29.15.2.23.49.23.85v2.33Z"/>
      <path class="st0" d="M119.51,36.15h-.73l-.21-.4c-.12.16-.23.28-.34.35-.15.1-.34.16-.55.16-.29,0-.53-.14-.71-.41-.17-.25-.26-.55-.26-.91,0-.26.04-.48.1-.67.09-.24.26-.47.5-.68l.06-.06c-.08-.13-.14-.27-.19-.42-.06-.19-.09-.38-.09-.57,0-.33.08-.59.23-.8.15-.2.35-.29.6-.29.19,0,.36.09.51.26.17.2.25.48.25.84,0,.28-.07.54-.2.76-.08.12-.17.24-.3.36h0s.44.8.44.8c.04-.11.07-.22.09-.32.03-.13.04-.28.06-.43h.54c-.02.29-.06.54-.12.76-.05.2-.13.4-.24.62l.57,1.02ZM117.69,34.12c-.15.15-.24.27-.29.35-.06.11-.08.25-.08.42,0,.13.03.26.09.37.09.17.21.25.37.25.09,0,.18-.04.28-.11.07-.06.14-.13.2-.22l-.57-1.05ZM118.08,32.26c-.04-.06-.11-.1-.18-.1s-.13.03-.18.1c-.05.08-.07.18-.07.3,0,.09.02.18.05.28.04.1.09.21.17.33.09-.1.16-.18.2-.27.06-.1.09-.22.09-.34,0-.14-.03-.24-.08-.31Z"/>
      <path class="st0" d="M121.82,36.16h-.69l1.14-4.59h.76l1.12,4.59h-.71l-.21-.95h-1.19l-.22.95ZM122.23,34.41h.82l-.4-1.81h-.01l-.41,1.81Z"/>
      <path class="st0" d="M126.64,36.15h-.6v-.41c-.07.18-.17.31-.3.4-.11.08-.24.13-.37.13-.33,0-.58-.19-.76-.57-.15-.33-.23-.76-.23-1.27,0-.56.09-1,.29-1.31.18-.29.4-.43.67-.43.17,0,.32.06.45.18.09.08.16.2.22.34h0v-1.64h.61v4.59ZM125.12,35.16c.08.24.22.37.4.37s.33-.1.42-.3c.08-.18.13-.41.13-.69,0-.32-.04-.56-.11-.75-.09-.22-.23-.34-.42-.34s-.32.11-.41.32c-.08.18-.11.42-.11.73,0,.25.03.47.1.66Z"/>
      <path class="st0" d="M128.53,36.27h-.65l-.84-3.59h.68l.48,2.69h.02l.5-2.69h.65l-.84,3.59Z"/>
      <path class="st0" d="M131.79,35.18c-.07.37-.21.66-.42.85-.17.17-.36.25-.59.25-.35,0-.62-.14-.81-.41-.22-.32-.33-.8-.33-1.46,0-.39.06-.72.17-1.03.19-.47.5-.7.93-.7.29,0,.52.11.71.35.24.32.37.82.37,1.51v.17h-1.56v.03c.02.22.05.4.1.51.09.21.23.31.43.31.09,0,.16-.03.24-.1.07-.07.13-.16.16-.27h.62ZM131.2,34.12c-.02-.25-.07-.43-.17-.55-.08-.1-.18-.15-.29-.15-.14,0-.24.06-.32.18-.08.12-.12.29-.14.51h.92Z"/>
      <path class="st0" d="M132.31,32.77h.58v.59h0c.08-.23.16-.38.23-.48.11-.14.25-.2.43-.2h.12v.92s-.06-.02-.09-.02h-.08c-.23,0-.39.09-.48.27-.07.13-.1.31-.1.55v1.75h-.61v-3.38Z"/>
      <path class="st0" d="M134.8,32.73h.38v.63h-.38v1.94c0,.11.01.18.03.21.03.04.11.06.22.06h.12s0,.65,0,.65h-.12s-.17.03-.17.03h-.07c-.25,0-.42-.07-.51-.21-.08-.11-.12-.29-.12-.53v-2.16h-.31v-.63h.31v-.92h.61v.92Z"/>
      <path class="st0" d="M136.5,32.4h-.61v-.83h.61v.83ZM136.5,32.8v3.35h-.61v-3.35h.61Z"/>
      <path class="st0" d="M138.58,33.81c-.02-.15-.05-.25-.09-.32-.07-.09-.17-.13-.32-.13s-.26.03-.31.11c-.04.05-.06.12-.06.22,0,.09.05.17.15.22.06.04.18.08.35.13.3.09.51.18.63.28.21.17.32.42.32.75,0,.44-.13.76-.37.96-.18.15-.39.22-.64.22-.31,0-.56-.09-.75-.26-.24-.21-.36-.52-.37-.93h.63c0,.16.04.28.11.36.08.1.22.15.4.15.14,0,.24-.04.31-.13.06-.06.08-.14.08-.23,0-.11-.05-.19-.16-.25-.06-.04-.18-.08-.37-.13-.29-.09-.5-.18-.62-.28-.2-.17-.31-.42-.31-.75,0-.3.06-.56.19-.76.16-.25.41-.38.74-.38.28,0,.5.06.67.2.22.18.35.49.37.93h-.6Z"/>
      <path class="st0" d="M140.49,32.4h-.61v-.83h.61v.83ZM140.49,32.8v3.35h-.61v-3.35h.61Z"/>
      <path class="st0" d="M143.32,36.15h-.61v-2.05c0-.19-.02-.33-.06-.42-.06-.16-.17-.24-.33-.24-.14,0-.25.07-.34.2-.09.14-.14.34-.14.58v1.94h-.61v-3.38h.59v.5h0c.07-.16.14-.29.22-.38.13-.14.29-.21.48-.21.24,0,.43.09.58.29.16.2.23.49.23.85v2.33Z"/>
      <path class="st0" d="M146.05,32.77v2.9c0,.35-.06.63-.17.82-.18.32-.52.49-1.02.49-.27,0-.49-.07-.67-.2-.21-.15-.32-.38-.34-.69h.66c.04.07.08.12.12.15.07.04.18.07.32.07.16,0,.27-.04.36-.12.09-.09.13-.22.13-.39v-.34h-.02c-.06.15-.13.26-.21.34-.1.11-.24.16-.4.16-.29,0-.53-.14-.71-.43-.2-.3-.29-.72-.29-1.25,0-.49.09-.88.29-1.18.18-.28.41-.41.68-.41.19,0,.35.07.47.21.08.09.16.22.21.39h0v-.5h.58ZM144.54,34.89c.09.2.21.31.37.31.19,0,.33-.1.41-.31.07-.16.11-.36.11-.6,0-.21-.05-.4-.14-.56-.1-.18-.23-.27-.38-.27-.13,0-.24.07-.33.2-.1.16-.15.38-.15.67,0,.21.04.4.1.56Z"/>
      <path class="st0" d="M149.97,33.09c-.04-.22-.09-.39-.16-.5-.12-.19-.29-.29-.52-.29-.21,0-.37.1-.51.31-.18.27-.27.7-.27,1.27,0,.45.06.81.18,1.09.14.32.34.48.6.48.18,0,.33-.08.44-.22.12-.15.2-.36.24-.64h.66c-.08.53-.22.93-.44,1.22-.24.32-.55.48-.92.48-.43,0-.78-.21-1.03-.62-.27-.43-.41-1.03-.41-1.79s.14-1.36.42-1.79c.26-.4.6-.61,1.03-.61s.76.18,1.01.55c.2.3.32.66.34,1.07h-.66Z"/>
      <path class="st0" d="M152.99,35.83c-.21.29-.48.44-.8.44s-.6-.15-.81-.44c-.24-.32-.36-.77-.36-1.35s.12-1.03.36-1.36c.21-.29.48-.43.81-.43s.58.14.8.43c.24.33.35.78.35,1.36s-.12,1.03-.35,1.35ZM152.63,33.78c-.09-.24-.23-.35-.43-.35s-.35.12-.44.35c-.06.17-.1.4-.1.69,0,.27.03.5.1.68.09.24.24.36.44.36s.34-.12.43-.36c.07-.18.1-.4.1-.68,0-.29-.03-.51-.1-.69Z"/>
      <path class="st0" d="M154.59,36.15h-.65v-.93h.65v.93Z"/>
      <path class="st0" d="M156.04,36.04c0,.26-.06.48-.19.64-.11.14-.26.24-.46.31v-.34c.09-.02.17-.07.23-.14.08-.09.12-.21.13-.36h-.36v-.93h.65v.81Z"/>
      <path class="st0" d="M157.46,35.33h1.55v.83h-2.21v-4.59h.66v3.76Z"/>
      <path class="st0" d="M160.15,32.73h.38v.63h-.38v1.94c0,.11.01.18.03.21.03.04.1.06.22.06h.13s0,.65,0,.65h-.12s-.17.03-.17.03h-.07c-.25,0-.42-.07-.52-.21-.08-.11-.11-.29-.11-.53v-2.16h-.31v-.63h.31v-.92h.61v.92Z"/>
      <path class="st0" d="M163.21,36.15h-.6v-.41c-.07.18-.17.31-.3.4-.12.08-.24.13-.37.13-.33,0-.58-.19-.75-.57-.15-.33-.23-.76-.23-1.27,0-.56.1-1,.29-1.31.18-.29.4-.43.67-.43.18,0,.33.06.45.18.09.08.16.2.22.34h0v-1.64h.61v4.59ZM161.68,35.16c.09.24.22.37.41.37s.32-.1.42-.3c.09-.18.13-.41.13-.69,0-.32-.04-.56-.11-.75-.09-.22-.23-.34-.42-.34s-.32.11-.41.32c-.08.18-.11.42-.11.73,0,.25.03.47.1.66Z"/>
      <path class="st0" d="M164.56,36.15h-.65v-.93h.65v.93Z"/>
    </g>
    <g>
      <g>
        <g>
          <path class="st0" d="M52.09,28.17c.4,0,.75-.44.75-.95v-.07h0v-3h4.06v-1.46h-9.56v1.46h4.07v3.07h0c0,.51.29.95.69.95h0Z"/>
          <path class="st0" d="M48.02,16.46v1.39h2.92c0,2.12-2.23,2.71-3.49,3h0l.57,1.1h0c1.37-.22,3.21-.88,4.06-2.27.8,1.46,2.75,2.05,4.06,2.27h0l.69-1.1h0c-1.32-.29-3.61-.88-3.61-3h3.04v-1.39h-8.25Z"/>
        </g>
        <path class="st0" d="M45.74,28.02c-.44-.87-.78-1.75-1.03-2.65-.29-1.05-.43-2.06-.43-3.03s.14-2.01.42-3.05c.25-.91.6-1.81,1.04-2.68h.93c-.37.9-.64,1.78-.81,2.66-.2.97-.29,1.99-.29,3.08s.1,2.07.3,3.05c.18.84.45,1.72.8,2.62h-.93Z"/>
        <path class="st0" d="M58.49,16.61c.44.87.78,1.75,1.03,2.66.3,1.06.45,2.08.45,3.06,0,1.16-.15,2.23-.44,3.22-.22.76-.57,1.58-1.04,2.47h-.93c.38-.92.65-1.74.81-2.45.21-.92.31-2,.31-3.23,0-1.07-.1-2.1-.31-3.09-.18-.86-.45-1.74-.81-2.63h.93Z"/>
      </g>
      <g>
        <path class="st0" d="M104.23,18.28c.75-.83,1-2.34,1-3.33h-2.22c0,1.2-1.21,3.05-2.27,3.05v1.98c1.84-.11,3.04-.26,4.65,1.84h2.38c-.11-2.17-2.41-3.54-3.55-3.54ZM102.46,29.68h9.09v-1.77h-7.98v-.78h7.98v-12.18h-5.32l.28.92c.22.64.55.78,1,.78h1.89v6.16h-7.98v1.77h7.98v.78h-7.98v3.04c0,.61.27,1.28,1.05,1.28Z"/>
        <path class="st0" d="M90.42,29.68h9.03v-14.73h-10.75l.27.85h0c.17.57.5.85,1.16.85h3.33c-.06,2.34-3.05,4.04-4.66,4.25h0v1.77h0c2.05.07,6.04-1.34,7.1-6.02h1.38v11.26h-5.76v-3.4h0c0-.78-.5-1.41-1.11-1.41s-1.06.64-1.06,1.41h0v3.89c0,.59.17,1.28,1.06,1.28Z"/>
        <path class="st0" d="M86.99,23.06v-1.77h-11.53v1.77h2.83v.71h-2.16v1.77h7.98v2.76c0,.78.44,1.49,1.05,1.49.67,0,1.11-.71,1.11-1.49v-4.53h-1.83v-.71h2.55ZM82.39,23.77h-2v-.71h2v.71ZM86.49,20.3v-1.41c-.15.14-.45.21-.55.21h-7.76v-.78h8.31v-3.47h-10.47v1.35h8.26v.78h-8.26v2.12c0,.67.21,1.42,1.05,1.42h8.42c.3,0,.86.02,1-.21Z"/>
        <path class="st0" d="M69.18,26.17v2.12h0c0,.78.44,1.49,1.05,1.49h0c.61,0,1.16-.71,1.16-1.49h0v-11.68h.55v11.68h0c0,.78.56,1.49,1.16,1.49.55,0,1.05-.71,1.05-1.49h0v-13.45h-4.99v9.77c-.48.58-1.69.64-2.44.64h-2.55v-8.71h4.05v-1.7h-6.21v10.76c0,.55.2,1.42,1.05,1.42h2.83c.97,0,3.27-.15,3.27-.85Z"/>
        <g>
          <path class="st0" d="M168.69,14.85v13.45h0c0,.78.61,1.49,1.16,1.49.67,0,1.22-.71,1.22-1.49h0v-11.4h.89c.44,0,.78-.42.78-1.06,0-.85-.61-.99-.78-.99h-3.27Z"/>
          <path class="st0" d="M162.75,14.85c-.06,1.28-.39,2.34-1.05,3.54-.61,1.21-1.27,1.91-2,1.77v2.55c2.16,0,3.55.63,4.16,1.7.55,1.2.88,2.13,1.05,2.83h2.66c0-1.34-.55-2.76-1.55-4.17-1.05-1.35-1.99-2.13-2.83-2.34.39-.64.83-1.28,1.22-2.05.39-.71.66-1.98.88-3.83h-2.55Z"/>
        </g>
        <path class="st0" d="M158.41,19.94h-1.61c.89-.99,1-2.19,1-4.25v-.99h-10.69l.33.92c.17.49.39.78.72.78h7.26c0,1.42,0,2.69-.66,3.54h-2.11v-1.7h-2v1.7h-4.05v2.05h2.88c-1.05.78-1.66,2.13-1.66,3.54,0,2.41,2.11,4.32,4.65,4.39h.06c1.88,0,4.6-1.27,4.65-4.32.06-1.77-.72-2.98-1.66-3.61h2.88v-2.05ZM152.48,28.02c-1.44,0-2.55-1.28-2.55-2.69,0-1.56,1.11-2.76,2.55-2.76s2.6,1.2,2.6,2.76c0,1.42-1.11,2.69-2.6,2.69Z"/>
        <path class="st0" d="M143.1,27.55c.33-.56.67-1.77,1.11-3.47.39-1.7.55-3.96.55-7.22v-1.91h-10.64l.33.92h0c.11.36.44.78.78.78h7.15c0,3.32-.11,5.73-.44,7.43-.33,1.77-.61,2.97-.78,3.47h-1.88v-5.17h0c0-.64-.44-1.27-1-1.27s-.99.64-.99,1.27h0v5.17h-3.71v2.13h11.75v-2.13h-2.22Z"/>
        <path class="st0" d="M132.15,14.71h-3.11v5.17h-2.05c.66-.92.94-2.05.94-3.26v-1.91h-7.37l.33.99c.17.42.78.71,1.06.71h3.6c0,1.35-.22,2.34-.78,3.47h-.83v-1.7h-2.05v1.7h-1.5v2.12h3.38c-1.11.78-1.72,2.13-1.72,3.54,0,2.41,2.05,4.32,4.66,4.39h.06c1.88,0,4.54-1.27,4.65-4.32.06-1.84-.72-3.05-1.72-3.61h1.72v-5.45h.72c.5,0,.83-.21.83-.85,0-.57-.33-.99-.83-.99ZM126.72,28.02c-1.44,0-2.61-1.28-2.61-2.69,0-1.56,1.16-2.76,2.61-2.76s2.61,1.2,2.61,2.76c0,1.42-1.16,2.69-2.61,2.69Z"/>
      </g>
    </g>
  </g>
</svg>